<mxfile host="app.diagrams.net" agent="Mozilla/5.0 (Macintosh; Intel Mac OS X 10_15_7) AppleWebKit/537.36 (KHTML, like Gecko) Chrome/135.0.0.0 Safari/537.36" version="26.2.8">
  <diagram name="Page-1" id="rUd7wC-9to7t8-ZexvKr">
    <mxGraphModel dx="1032" dy="502" grid="1" gridSize="10" guides="1" tooltips="1" connect="1" arrows="1" fold="1" page="1" pageScale="1" pageWidth="850" pageHeight="1100" math="0" shadow="0">
      <root>
        <mxCell id="0" />
        <mxCell id="1" parent="0" />
        <mxCell id="eim84Epl0ro-4GX3V2tv-52" style="edgeStyle=none;rounded=0;orthogonalLoop=1;jettySize=auto;html=1;exitX=1;exitY=1;exitDx=0;exitDy=0;entryX=0;entryY=0.5;entryDx=0;entryDy=0;shape=link;width=0;" edge="1" parent="1" source="eim84Epl0ro-4GX3V2tv-2" target="eim84Epl0ro-4GX3V2tv-51">
          <mxGeometry relative="1" as="geometry" />
        </mxCell>
        <mxCell id="eim84Epl0ro-4GX3V2tv-63" value="1" style="edgeLabel;html=1;align=center;verticalAlign=middle;resizable=0;points=[];" vertex="1" connectable="0" parent="eim84Epl0ro-4GX3V2tv-52">
          <mxGeometry x="-0.0011" y="2" relative="1" as="geometry">
            <mxPoint as="offset" />
          </mxGeometry>
        </mxCell>
        <mxCell id="eim84Epl0ro-4GX3V2tv-2" value="用户" style="rounded=0;whiteSpace=wrap;html=1;" vertex="1" parent="1">
          <mxGeometry x="40" y="120" width="80" height="40" as="geometry" />
        </mxCell>
        <mxCell id="eim84Epl0ro-4GX3V2tv-4" value="智能助手消息" style="rounded=0;whiteSpace=wrap;html=1;" vertex="1" parent="1">
          <mxGeometry x="290" y="220" width="80" height="40" as="geometry" />
        </mxCell>
        <mxCell id="eim84Epl0ro-4GX3V2tv-5" value="偏好" style="rounded=0;whiteSpace=wrap;html=1;" vertex="1" parent="1">
          <mxGeometry x="280" y="120" width="80" height="40" as="geometry" />
        </mxCell>
        <mxCell id="eim84Epl0ro-4GX3V2tv-57" style="edgeStyle=none;rounded=0;orthogonalLoop=1;jettySize=auto;html=1;exitX=1;exitY=0.5;exitDx=0;exitDy=0;entryX=0;entryY=0.5;entryDx=0;entryDy=0;shape=link;width=0;" edge="1" parent="1" source="eim84Epl0ro-4GX3V2tv-6" target="eim84Epl0ro-4GX3V2tv-58">
          <mxGeometry relative="1" as="geometry">
            <mxPoint x="150" y="340" as="targetPoint" />
          </mxGeometry>
        </mxCell>
        <mxCell id="eim84Epl0ro-4GX3V2tv-64" value="N" style="edgeLabel;html=1;align=center;verticalAlign=middle;resizable=0;points=[];" vertex="1" connectable="0" parent="eim84Epl0ro-4GX3V2tv-57">
          <mxGeometry x="-0.025" y="2" relative="1" as="geometry">
            <mxPoint as="offset" />
          </mxGeometry>
        </mxCell>
        <mxCell id="eim84Epl0ro-4GX3V2tv-6" value="评分" style="rounded=0;whiteSpace=wrap;html=1;" vertex="1" parent="1">
          <mxGeometry x="40" y="320" width="80" height="40" as="geometry" />
        </mxCell>
        <mxCell id="eim84Epl0ro-4GX3V2tv-7" value="部门" style="rounded=0;whiteSpace=wrap;html=1;" vertex="1" parent="1">
          <mxGeometry x="400" y="220" width="80" height="40" as="geometry" />
        </mxCell>
        <mxCell id="eim84Epl0ro-4GX3V2tv-62" value="1" style="edgeStyle=none;rounded=0;orthogonalLoop=1;jettySize=auto;html=1;exitX=1;exitY=0.5;exitDx=0;exitDy=0;entryX=0;entryY=0.5;entryDx=0;entryDy=0;shape=link;width=0;" edge="1" parent="1" source="eim84Epl0ro-4GX3V2tv-8" target="eim84Epl0ro-4GX3V2tv-54">
          <mxGeometry relative="1" as="geometry" />
        </mxCell>
        <mxCell id="eim84Epl0ro-4GX3V2tv-71" value="M" style="edgeStyle=none;rounded=0;orthogonalLoop=1;jettySize=auto;html=1;exitX=0;exitY=0.5;exitDx=0;exitDy=0;entryX=1;entryY=0.5;entryDx=0;entryDy=0;shape=link;width=0;" edge="1" parent="1" source="eim84Epl0ro-4GX3V2tv-8" target="eim84Epl0ro-4GX3V2tv-58">
          <mxGeometry relative="1" as="geometry" />
        </mxCell>
        <mxCell id="eim84Epl0ro-4GX3V2tv-8" value="医院" style="rounded=0;whiteSpace=wrap;html=1;" vertex="1" parent="1">
          <mxGeometry x="280" y="320" width="80" height="40" as="geometry" />
        </mxCell>
        <mxCell id="eim84Epl0ro-4GX3V2tv-20" value="评价" style="rhombus;whiteSpace=wrap;html=1;" vertex="1" parent="1">
          <mxGeometry x="40" y="220" width="80" height="40" as="geometry" />
        </mxCell>
        <mxCell id="eim84Epl0ro-4GX3V2tv-40" value="" style="endArrow=none;html=1;rounded=0;exitX=0.5;exitY=0;exitDx=0;exitDy=0;entryX=0.5;entryY=1;entryDx=0;entryDy=0;" edge="1" parent="1" source="eim84Epl0ro-4GX3V2tv-6" target="eim84Epl0ro-4GX3V2tv-20">
          <mxGeometry width="50" height="50" relative="1" as="geometry">
            <mxPoint x="430" y="290" as="sourcePoint" />
            <mxPoint x="480" y="240" as="targetPoint" />
          </mxGeometry>
        </mxCell>
        <mxCell id="eim84Epl0ro-4GX3V2tv-44" value="M" style="edgeLabel;html=1;align=center;verticalAlign=middle;resizable=0;points=[];" vertex="1" connectable="0" parent="eim84Epl0ro-4GX3V2tv-40">
          <mxGeometry x="-0.0333" y="-3" relative="1" as="geometry">
            <mxPoint x="-3" as="offset" />
          </mxGeometry>
        </mxCell>
        <mxCell id="eim84Epl0ro-4GX3V2tv-41" value="" style="endArrow=none;html=1;rounded=0;exitX=0.5;exitY=0;exitDx=0;exitDy=0;entryX=0.5;entryY=1;entryDx=0;entryDy=0;" edge="1" parent="1" source="eim84Epl0ro-4GX3V2tv-20" target="eim84Epl0ro-4GX3V2tv-2">
          <mxGeometry width="50" height="50" relative="1" as="geometry">
            <mxPoint x="430" y="290" as="sourcePoint" />
            <mxPoint x="480" y="240" as="targetPoint" />
          </mxGeometry>
        </mxCell>
        <mxCell id="eim84Epl0ro-4GX3V2tv-43" value="1" style="edgeLabel;html=1;align=center;verticalAlign=middle;resizable=0;points=[];" vertex="1" connectable="0" parent="eim84Epl0ro-4GX3V2tv-41">
          <mxGeometry x="0.08" y="-2" relative="1" as="geometry">
            <mxPoint x="-2" as="offset" />
          </mxGeometry>
        </mxCell>
        <mxCell id="eim84Epl0ro-4GX3V2tv-47" style="rounded=0;orthogonalLoop=1;jettySize=auto;html=1;exitX=0;exitY=0.5;exitDx=0;exitDy=0;entryX=1;entryY=0.5;entryDx=0;entryDy=0;elbow=vertical;shape=link;width=0;" edge="1" parent="1" source="eim84Epl0ro-4GX3V2tv-45" target="eim84Epl0ro-4GX3V2tv-2">
          <mxGeometry relative="1" as="geometry" />
        </mxCell>
        <mxCell id="eim84Epl0ro-4GX3V2tv-49" value="M" style="edgeLabel;html=1;align=center;verticalAlign=middle;resizable=0;points=[];" vertex="1" connectable="0" parent="eim84Epl0ro-4GX3V2tv-47">
          <mxGeometry x="-0.125" y="1" relative="1" as="geometry">
            <mxPoint x="1" as="offset" />
          </mxGeometry>
        </mxCell>
        <mxCell id="eim84Epl0ro-4GX3V2tv-48" style="edgeStyle=none;rounded=0;orthogonalLoop=1;jettySize=auto;html=1;exitX=1;exitY=0.5;exitDx=0;exitDy=0;entryX=0;entryY=0.5;entryDx=0;entryDy=0;shape=link;width=0;" edge="1" parent="1" source="eim84Epl0ro-4GX3V2tv-45" target="eim84Epl0ro-4GX3V2tv-5">
          <mxGeometry relative="1" as="geometry" />
        </mxCell>
        <mxCell id="eim84Epl0ro-4GX3V2tv-50" value="N" style="edgeLabel;html=1;align=center;verticalAlign=middle;resizable=0;points=[];" vertex="1" connectable="0" parent="eim84Epl0ro-4GX3V2tv-48">
          <mxGeometry x="-0.025" y="2" relative="1" as="geometry">
            <mxPoint as="offset" />
          </mxGeometry>
        </mxCell>
        <mxCell id="eim84Epl0ro-4GX3V2tv-45" value="收藏" style="rhombus;whiteSpace=wrap;html=1;" vertex="1" parent="1">
          <mxGeometry x="160" y="120" width="80" height="40" as="geometry" />
        </mxCell>
        <mxCell id="eim84Epl0ro-4GX3V2tv-53" value="M" style="edgeStyle=none;rounded=0;orthogonalLoop=1;jettySize=auto;html=1;exitX=1;exitY=0.5;exitDx=0;exitDy=0;entryX=0;entryY=0.5;entryDx=0;entryDy=0;shape=link;width=0;" edge="1" parent="1" source="eim84Epl0ro-4GX3V2tv-51" target="eim84Epl0ro-4GX3V2tv-4">
          <mxGeometry relative="1" as="geometry" />
        </mxCell>
        <mxCell id="eim84Epl0ro-4GX3V2tv-51" value="发送" style="rhombus;whiteSpace=wrap;html=1;" vertex="1" parent="1">
          <mxGeometry x="170" y="220" width="80" height="40" as="geometry" />
        </mxCell>
        <mxCell id="eim84Epl0ro-4GX3V2tv-60" style="edgeStyle=none;rounded=0;orthogonalLoop=1;jettySize=auto;html=1;exitX=0.5;exitY=0;exitDx=0;exitDy=0;entryX=0.5;entryY=1;entryDx=0;entryDy=0;shape=link;width=-1;" edge="1" parent="1" source="eim84Epl0ro-4GX3V2tv-54" target="eim84Epl0ro-4GX3V2tv-7">
          <mxGeometry relative="1" as="geometry" />
        </mxCell>
        <mxCell id="eim84Epl0ro-4GX3V2tv-66" value="M" style="edgeLabel;html=1;align=center;verticalAlign=middle;resizable=0;points=[];" vertex="1" connectable="0" parent="eim84Epl0ro-4GX3V2tv-60">
          <mxGeometry y="-2" relative="1" as="geometry">
            <mxPoint x="1" as="offset" />
          </mxGeometry>
        </mxCell>
        <mxCell id="eim84Epl0ro-4GX3V2tv-54" value="包含" style="rhombus;whiteSpace=wrap;html=1;" vertex="1" parent="1">
          <mxGeometry x="400" y="320" width="80" height="40" as="geometry" />
        </mxCell>
        <mxCell id="eim84Epl0ro-4GX3V2tv-58" value="被评价" style="rhombus;whiteSpace=wrap;html=1;" vertex="1" parent="1">
          <mxGeometry x="160" y="320" width="80" height="40" as="geometry" />
        </mxCell>
      </root>
    </mxGraphModel>
  </diagram>
</mxfile>
